<?xml version="1.0" encoding="UTF-8"?>
<svg version="1.1" xmlns="http://www.w3.org/2000/svg" width="386" height="403">
<path d="M0 0 C1.09707275 0.20882813 1.09707275 0.20882813 2.21630859 0.421875 C36.52966456 7.09155769 67.45741661 24.64827218 92.56787109 48.63525391 C93.94699053 49.94948467 95.34235213 51.24660661 96.73828125 52.54296875 C124.57094397 79.16726695 141.45964808 115.4121626 148 153 C148.22558594 154.216875 148.45117188 155.43375 148.68359375 156.6875 C155.27878956 198.8967532 146.13931256 245.86073708 123 282 C122.0112349 283.01111007 121.0115538 284.01168886 120 285 C119.34 285.99 118.68 286.98 118 288 C114 294 114 294 112 296 C111.67 296.66 111.34 297.32 111 298 C110.278125 298.70125 109.55625 299.4025 108.8125 300.125 C106.03766529 302.8360454 103.82241109 305.84244905 101.52734375 308.9609375 C93.97992818 319.03702683 84.84042685 327.21829403 75 335 C73.49953125 336.20849609 73.49953125 336.20849609 71.96875 337.44140625 C42.00560456 361.3124988 2.79424296 377.9524027 -35.91796875 378.203125 C-36.6489679 378.21018463 -37.37996704 378.21724426 -38.13311768 378.22451782 C-61.90997169 378.40181602 -83.26718427 376.41832089 -106 369 C-106.70962891 368.76941895 -107.41925781 368.53883789 -108.15039062 368.30126953 C-132.70014623 360.13580734 -153.37999047 346.55586125 -173 330 C-173.6285791 329.47438477 -174.2571582 328.94876953 -174.90478516 328.40722656 C-177.94765257 325.83983224 -180.81354698 323.31290149 -183.375 320.25 C-185.21661644 318.0735442 -187.06076021 315.93571406 -189.01953125 313.86328125 C-214.61092453 286.70412694 -229.53986252 250.61041821 -235 214 C-235.14139404 213.05205566 -235.14139404 213.05205566 -235.28564453 212.08496094 C-236.2563401 204.67016649 -236.24358418 197.21714041 -236.25 189.75 C-236.25067474 189.04202271 -236.25134949 188.33404541 -236.25204468 187.60461426 C-236.23383763 175.52670747 -235.44851794 163.84735648 -233 152 C-232.83371094 151.18208984 -232.66742188 150.36417969 -232.49609375 149.52148438 C-222.24326881 100.80157918 -192.75648525 57.90353149 -151.31982422 30.47412109 C-134.34439845 19.52481491 -116.35518908 11.67103565 -97 6 C-96.06897461 5.72671875 -95.13794922 5.4534375 -94.17871094 5.171875 C-63.40880769 -3.69420653 -31.57781525 -6.31148235 0 0 Z " fill="#4F718D" transform="translate(236,14)"/>
<path d="M0 0 C1.09707275 0.20882813 1.09707275 0.20882813 2.21630859 0.421875 C36.52966456 7.09155769 67.45741661 24.64827218 92.56787109 48.63525391 C93.94699053 49.94948467 95.34235213 51.24660661 96.73828125 52.54296875 C124.57094397 79.16726695 141.45964808 115.4121626 148 153 C148.22558594 154.216875 148.45117188 155.43375 148.68359375 156.6875 C153.88409216 189.97068982 149.18304507 225.08400934 136 256 C134.57347393 251.72042178 136.28773318 248.63509437 137.75 244.5625 C138.31661039 242.91241999 138.88042015 241.2613756 139.44140625 239.609375 C139.71355957 238.80951172 139.98571289 238.00964844 140.26611328 237.18554688 C154.97245196 193.38942449 148.00040264 142.18156057 127.76953125 101.46484375 C111.15029674 68.82158356 84.92442706 41.82728517 53 24 C52.42040527 23.66790527 51.84081055 23.33581055 51.24365234 22.99365234 C25.54900077 8.42586427 -5.52605526 0.24861061 -35 1 C-33.906875 1.07476563 -32.81375 1.14953125 -31.6875 1.2265625 C-5.35077502 3.3412534 19.83178402 11.43492925 43 24 C44.72476563 24.93392578 44.72476563 24.93392578 46.484375 25.88671875 C51.63744099 28.78374731 56.15702427 31.47077861 60 36 C55.97534067 34.52701932 52.48400578 32.57702616 48.8125 30.375 C21.48916367 14.45955905 -8.64418036 6.56991302 -40.19116211 6.73925781 C-42.56454903 6.75000928 -44.93718213 6.73926866 -47.31054688 6.7265625 C-60.92384013 6.71228236 -73.98993318 8.0977974 -87.1875 11.625 C-88.16380371 11.88514893 -89.14010742 12.14529785 -90.14599609 12.41333008 C-134.61880567 24.70044765 -173.61609838 52.64466584 -196.734375 92.8359375 C-199.44432801 97.7162511 -201.89681813 102.71885307 -204.3125 107.75 C-204.72121338 108.60094238 -205.12992676 109.45188477 -205.55102539 110.32861328 C-215.46684205 131.46522761 -220.09390611 153.75583475 -221 177 C-221.03319336 177.84933105 -221.06638672 178.69866211 -221.10058594 179.57373047 C-222.16222388 212.50416665 -215.16602886 245.15652115 -199 274 C-198.64824707 274.63341309 -198.29649414 275.26682617 -197.93408203 275.91943359 C-189.34091357 291.2326529 -178.58585649 304.73685778 -166 317 C-165.51144531 317.53367187 -165.02289063 318.06734375 -164.51953125 318.6171875 C-135.98850586 348.97470237 -95.08550654 362.91916468 -55 369 C-55 369.33 -55 369.66 -55 370 C-86.47545352 372.59889066 -121.295246 354.93887916 -146 337 C-146.79921875 336.41992188 -147.5984375 335.83984375 -148.421875 335.2421875 C-150.66425181 333.54812911 -152.83510217 331.79213397 -155 330 C-155.76280273 329.37834961 -155.76280273 329.37834961 -156.54101562 328.74414062 C-193.91830066 298.17840234 -218.38602541 253.18664619 -223.79696655 205.11663818 C-224.42267852 198.5935463 -224.4828751 192.04833974 -224.5 185.5 C-224.50434052 184.71005646 -224.50868103 183.92011292 -224.51315308 183.10623169 C-224.54397262 165.16318181 -221.37668968 148.35369131 -217 131 C-223.34403279 150.67616262 -226.42404046 169.4600589 -226.375 190.0625 C-226.37445618 190.92405701 -226.37391235 191.78561401 -226.37335205 192.67327881 C-226.33508414 205.86958465 -225.48761263 218.22010451 -222 231 C-221.57057597 232.72630447 -221.14222477 234.4528761 -220.71484375 236.1796875 C-209.04325282 281.51596361 -180.14933681 321.00387626 -140.06445312 345.35302734 C-109.68958492 363.2048141 -76.30371176 372.75921961 -41 372 C-44.96 371.67 -48.92 371.34 -53 371 C-53 370.67 -53 370.34 -53 370 C-52.13947021 369.98018066 -51.27894043 369.96036133 -50.39233398 369.93994141 C-47.12111224 369.86065234 -43.85024557 369.77394338 -40.5793457 369.68261719 C-39.17837796 369.64493015 -37.77733302 369.60998732 -36.3762207 369.578125 C13.93906653 368.42103611 56.19773446 348.39488053 90.953125 312.390625 C114.45662566 287.33060112 129.61256539 255.59839981 136 222 C136.26816528 220.75790771 136.26816528 220.75790771 136.54174805 219.49072266 C138.29794314 210.57128549 138.3380173 201.73116849 138.31567383 192.67626953 C138.31253848 190.03244773 138.3359602 187.3897761 138.36132812 184.74609375 C138.41991014 169.24736673 137.01821863 153.76412064 132.25 138.9375 C129.87533497 131.37399509 129.87533497 131.37399509 131 128 C134.87676974 139.51909042 137.81022715 151.04431344 140 163 C140.34224609 164.86398438 140.34224609 164.86398438 140.69140625 166.765625 C147.04350475 207.09922949 137.6906836 254.96397461 115 289 C114.83286431 291.62531524 114.83286431 291.62531524 115 294 C114.01 294.33 113.02 294.66 112 295 C111.67 295.99 111.34 296.98 111 298 C109.33333333 299.66666667 107.66666667 301.33333333 106 303 C105.00061925 304.27609101 104.02243774 305.56897945 103.0625 306.875 C95.04298553 317.77174485 85.59492956 326.62164123 75 335 C73.49953125 336.20849609 73.49953125 336.20849609 71.96875 337.44140625 C42.00560456 361.3124988 2.79424296 377.9524027 -35.91796875 378.203125 C-36.6489679 378.21018463 -37.37996704 378.21724426 -38.13311768 378.22451782 C-61.90997169 378.40181602 -83.26718427 376.41832089 -106 369 C-106.70962891 368.76941895 -107.41925781 368.53883789 -108.15039062 368.30126953 C-132.70014623 360.13580734 -153.37999047 346.55586125 -173 330 C-173.6285791 329.47438477 -174.2571582 328.94876953 -174.90478516 328.40722656 C-177.94765257 325.83983224 -180.81354698 323.31290149 -183.375 320.25 C-185.21661644 318.0735442 -187.06076021 315.93571406 -189.01953125 313.86328125 C-214.61092453 286.70412694 -229.53986252 250.61041821 -235 214 C-235.14139404 213.05205566 -235.14139404 213.05205566 -235.28564453 212.08496094 C-236.2563401 204.67016649 -236.24358418 197.21714041 -236.25 189.75 C-236.25067474 189.04202271 -236.25134949 188.33404541 -236.25204468 187.60461426 C-236.23383763 175.52670747 -235.44851794 163.84735648 -233 152 C-232.83371094 151.18208984 -232.66742188 150.36417969 -232.49609375 149.52148438 C-222.24326881 100.80157918 -192.75648525 57.90353149 -151.31982422 30.47412109 C-134.34439845 19.52481491 -116.35518908 11.67103565 -97 6 C-96.06897461 5.72671875 -95.13794922 5.4534375 -94.17871094 5.171875 C-63.40880769 -3.69420653 -31.57781525 -6.31148235 0 0 Z " fill="#F4F6F8" transform="translate(236,14)"/>
<path d="M0 0 C1.00490479 0.00499512 2.00980957 0.00999023 3.04516602 0.01513672 C14.71593147 0.28722627 25.08958238 3.30716362 33.75 11.5 C34.27851563 11.98855469 34.80703125 12.47710937 35.3515625 12.98046875 C45.93840639 23.97449894 48.13395047 39.01215056 48.12329102 53.58666992 C47.76001339 68.49976222 42.60509835 82.34333465 32.34765625 93.234375 C20.34234997 103.70516845 5.83896013 104.41391724 -9.25 103.5 C-20.61045127 102.13872588 -30.5340621 96.66828287 -37.75390625 87.734375 C-44.64991498 77.43537502 -46.62608513 66.63006581 -47.25 54.5 C-47.31574219 53.38109375 -47.38148437 52.2621875 -47.44921875 51.109375 C-47.86929588 38.18838175 -44.70379881 27.07262516 -37.25 16.5 C-36.528125 15.448125 -35.80625 14.39625 -35.0625 13.3125 C-25.18793408 3.43793408 -13.67358114 -0.08970808 0 0 Z " fill="#FCFDFD" transform="translate(145.25,164.5)"/>
<path d="M0 0 C0.90878906 0.00257813 1.81757813 0.00515625 2.75390625 0.0078125 C4.15962891 0.05035156 4.15962891 0.05035156 5.59375 0.09375 C6.53089844 0.09117187 7.46804687 0.08859375 8.43359375 0.0859375 C17.42190481 0.21343127 17.42190481 0.21343127 21.09375 3.59375 C22.49095894 5.92243156 23.58538117 8.05935724 24.65625 10.53125 C24.98141602 11.24547119 25.30658203 11.95969238 25.64160156 12.69555664 C27.61861023 17.08765084 29.48934665 21.52265166 31.34190369 25.9684906 C32.13885044 27.88011324 32.94015323 29.78986737 33.74194336 31.69946289 C34.80571828 34.23356403 35.8488783 36.77492762 36.88110352 39.32202148 C37.6128479 41.07881226 37.6128479 41.07881226 38.359375 42.87109375 C38.79024414 43.92546631 39.22111328 44.97983887 39.66503906 46.06616211 C41.26028941 48.88838132 42.22209278 49.32824401 45.09375 50.59375 C45.10833252 49.28704346 45.12291504 47.98033691 45.13793945 46.6340332 C45.19597815 41.77893925 45.27321116 36.92430637 45.35620117 32.06958008 C45.38942422 29.96972139 45.4174643 27.86977397 45.44018555 25.76977539 C45.47377936 22.74847656 45.52609834 19.72798899 45.58203125 16.70703125 C45.59161613 15.30207146 45.59161613 15.30207146 45.60139465 13.86872864 C45.71077076 9.00317539 45.86332227 5.5083848 49.09375 1.59375 C52.20974794 0.03575103 55.48779401 0.28571886 58.90625 0.21875 C59.61845703 0.18136719 60.33066406 0.14398438 61.06445312 0.10546875 C64.77633724 0.04366124 66.78612579 0.36803034 69.8001709 2.57958984 C72.87621535 6.62204498 72.78939383 9.39829373 72.70898438 14.34375 C72.71453339 15.21427002 72.7200824 16.08479004 72.72579956 16.98168945 C72.73758926 19.85294012 72.71332781 22.72261022 72.6875 25.59375 C72.68578865 27.59244718 72.68585483 29.59114661 72.68762207 31.58984375 C72.68596921 35.77626046 72.66727717 39.96214145 72.63574219 44.1484375 C72.59606489 49.51199437 72.5916972 54.87484961 72.59920502 60.23852539 C72.602276 64.36497412 72.59014957 68.49126541 72.57307434 72.61767578 C72.56604795 74.59520479 72.56291937 76.57275165 72.56376648 78.55029297 C72.56196678 81.31510608 72.54057014 84.07908186 72.51367188 86.84375 C72.51660248 87.65948486 72.51953308 88.47521973 72.52255249 89.31567383 C72.45444132 93.85803032 72.09171886 96.93499245 69.09375 100.59375 C66.53759766 101.24072266 66.53759766 101.24072266 63.5078125 101.2578125 C62.41210938 101.26425781 61.31640625 101.27070313 60.1875 101.27734375 C58.47046875 101.24833984 58.47046875 101.24833984 56.71875 101.21875 C55.58179688 101.23808594 54.44484375 101.25742187 53.2734375 101.27734375 C45.07030146 101.22920328 45.07030146 101.22920328 41.07421875 98.62890625 C38.51433151 94.70576545 36.60390639 90.71427189 34.78125 86.40625 C34.40025146 85.53291016 34.01925293 84.65957031 33.62670898 83.75976562 C32.83549474 81.94548306 32.04882855 80.12921065 31.26660156 78.31103516 C29.43038011 74.05684182 27.54137925 69.8264317 25.65625 65.59375 C25.3264917 64.84714111 24.9967334 64.10053223 24.65698242 63.33129883 C23.20493588 60.04816354 21.74590983 56.78183731 20.09375 53.59375 C18.60875 54.08875 18.60875 54.08875 17.09375 54.59375 C15.56725593 58.6785739 15.92101187 63.10424451 15.8828125 67.41015625 C15.85476059 69.16081691 15.82609625 70.91146784 15.796875 72.66210938 C15.75551475 75.41625872 15.71861691 78.17022308 15.69238281 80.92456055 C15.66484155 83.58680366 15.61899299 86.24822717 15.5703125 88.91015625 C15.56705963 89.73520157 15.56380676 90.56024689 15.56045532 91.41029358 C15.4358608 97.1838676 15.4358608 97.1838676 13.69271851 99.27232361 C10.34306609 102.04055768 7.54879561 101.79012639 3.28125 101.84375 C2.05792969 101.86953125 0.83460938 101.8953125 -0.42578125 101.921875 C-4.14598143 101.57114906 -5.99493646 100.89697032 -8.90625 98.59375 C-10.19053021 94.74090938 -10.07832856 91.08744692 -10.09912109 87.07080078 C-10.10729858 86.20057281 -10.11547607 85.33034485 -10.12390137 84.43374634 C-10.14872705 81.55219205 -10.16526224 78.67068685 -10.1796875 75.7890625 C-10.18501118 74.80512386 -10.19033485 73.82118523 -10.19581985 72.80743027 C-10.22253639 67.60160857 -10.24191796 62.39581076 -10.25634766 57.18994141 C-10.27301157 51.81054661 -10.31780829 46.43176253 -10.3687191 41.05259895 C-10.4023495 36.91762578 -10.41392032 32.78279853 -10.41957474 28.64770126 C-10.4262965 26.66453242 -10.44154251 24.68137349 -10.46546555 22.69833755 C-10.49703615 19.92354488 -10.49716645 17.15041292 -10.48974609 14.37548828 C-10.50615143 13.55661133 -10.52255676 12.73773438 -10.53945923 11.89404297 C-10.49263944 7.61751398 -10.27430063 6.05822163 -7.52078247 2.58334351 C-4.68368953 0.42438708 -3.50454644 -0.0302353 0 0 Z " fill="#FBFCFC" transform="translate(216.90625,165.40625)"/>
<path d="M0 0 C5.33757812 2.36208431 8.18961696 5.66631337 10.4375 11 C12.84583201 17.73900975 13.18193388 24.2948905 13.1875 31.375 C13.19974609 32.18710938 13.21199219 32.99921875 13.22460938 33.8359375 C13.24812415 43.61808298 10.95896254 52.46167709 4.4375 59.9375 C0.45314922 63.30887374 -2.91001231 63.42416564 -8 63 C-14.16878525 60.44739921 -17.34067006 57.11743297 -20 51 C-24.3137314 37.90288781 -24.9773999 22.52469806 -19.3125 9.6875 C-14.89590057 1.84116035 -9.13899126 -2.08809503 0 0 Z " fill="#4E708D" transform="translate(150,185)"/>
<path d="M0 0 C0.68578125 -0.03738281 1.3715625 -0.07476562 2.078125 -0.11328125 C4.0859375 -0.1484375 4.0859375 -0.1484375 7.625 0.375 C10.5281961 4.20676166 11.89473105 8.63430565 13.359375 13.16015625 C13.60165833 13.89826035 13.84394165 14.63636444 14.09356689 15.39683533 C14.60090829 16.94979072 15.10498252 18.50381689 15.60595703 20.05883789 C16.37492218 22.43725931 17.16149084 24.80937717 17.94921875 27.18164062 C18.44118538 28.69496144 18.93210714 30.20862241 19.421875 31.72265625 C19.65823669 32.43003433 19.89459839 33.13741241 20.13812256 33.8662262 C22.06417672 39.94070118 22.06417672 39.94070118 20.625 43.375 C17.22815741 43.7250563 14.0060113 43.92678104 10.625 43.375 C10.026875 42.385 9.42875 41.395 8.8125 40.375 C6.93254155 37.0892776 6.93254155 37.0892776 3.64453125 36.765625 C0.14212797 36.62568436 -2.93859025 36.67240508 -6.375 37.375 C-8.58668225 40.31736782 -8.58668225 40.31736782 -10.375 43.375 C-13.7560113 43.92678104 -16.97815741 43.7250563 -20.375 43.375 C-21.3744593 40.27941133 -21.37376195 38.51071406 -20.31103516 35.44848633 C-20.05391754 34.69122757 -19.79679993 33.93396881 -19.53189087 33.15376282 C-19.24550751 32.3463414 -18.95912415 31.53891998 -18.6640625 30.70703125 C-18.37647064 29.87161301 -18.08887878 29.03619476 -17.79257202 28.17546082 C-17.18370243 26.41287039 -16.5697766 24.65201963 -15.95117188 22.89282227 C-15.0010844 20.19058425 -14.06562242 17.48363564 -13.1328125 14.77539062 C-12.53990431 13.06481215 -11.94618225 11.35451551 -11.3515625 9.64453125 C-11.0692276 8.83103714 -10.7868927 8.01754303 -10.4960022 7.17939758 C-8.0484768 0.23136169 -7.09199305 0.14500358 0 0 Z " fill="#FAFBFC" transform="translate(188.375,278.625)"/>
<path d="M0 0 C0.66 0 1.32 0 2 0 C2 21.78 2 43.56 2 66 C-18.69251468 66 -18.69251468 66 -25.9375 59.125 C-26.68966797 58.47402344 -27.44183594 57.82304687 -28.21679688 57.15234375 C-29.59323243 55.95918693 -30.95443773 54.74800081 -32.29272461 53.51220703 C-34.13356395 51.81240831 -34.13356395 51.81240831 -37 50 C-41.12280555 50.28051131 -43.36285965 51.76273294 -46.4765625 54.37890625 C-47.31316406 55.05244141 -48.14976562 55.72597656 -49.01171875 56.41992188 C-50.7418608 57.83843147 -52.46088188 59.2706242 -54.16796875 60.71679688 C-59.8688331 65.25572933 -63.62801432 66.79199514 -70.95849609 66.26147461 C-71.63219238 66.17518799 -72.30588867 66.08890137 -73 66 C-73 64.68 -73 63.36 -73 62 C-72.04287109 61.80083984 -72.04287109 61.80083984 -71.06640625 61.59765625 C-70.24011719 61.42105469 -69.41382812 61.24445313 -68.5625 61.0625 C-67.73878906 60.88847656 -66.91507812 60.71445313 -66.06640625 60.53515625 C-64.02338796 60.19247006 -64.02338796 60.19247006 -63 59 C-62.76712992 57.31816052 -62.58735834 55.6287584 -62.4375 53.9375 C-62.35371094 53.01839844 -62.26992187 52.09929687 -62.18359375 51.15234375 C-62.12300781 50.44207031 -62.06242187 49.73179687 -62 49 C-60.02 49 -58.04 49 -56 49 C-55.67 50.32 -55.34 51.64 -55 53 C-53.96359375 52.19433594 -52.9271875 51.38867188 -51.859375 50.55859375 C-50.49009019 49.51756215 -49.12027047 48.47723387 -47.75 47.4375 C-47.06808594 46.90447266 -46.38617188 46.37144531 -45.68359375 45.82226562 C-45.01972656 45.32275391 -44.35585937 44.82324219 -43.671875 44.30859375 C-43.0644043 43.84251709 -42.45693359 43.37644043 -41.83105469 42.89624023 C-40 42 -40 42 -38.07543945 42.13525391 C-35.40702492 43.24706714 -33.40481475 44.75325865 -31.12109375 46.52734375 C-30.20005859 47.23697266 -29.27902344 47.94660156 -28.33007812 48.67773438 C-27.37552734 49.42345703 -26.42097656 50.16917969 -25.4375 50.9375 C-23.54085529 52.40558209 -21.64374055 53.87305719 -19.74609375 55.33984375 C-18.48817017 56.32005493 -18.48817017 56.32005493 -17.20483398 57.32006836 C-12.16407014 61.16078323 -11.2341676 61.09572905 -4 62 C-4 45.17 -4 28.34 -4 11 C-7.63 13.31 -11.26 15.62 -15 18 C-16.28132813 18.65484375 -17.56265625 19.3096875 -18.8828125 19.984375 C-22.63270068 22.02648278 -25.21593174 23.7343175 -28 27 C-29.81462727 33.16280971 -29.3935832 39.65750349 -29 46 C-31.421875 45.0625 -31.421875 45.0625 -34 43 C-36.05540248 37.18351775 -35.81918451 29.83810995 -34 24 C-30.92439972 19.47140933 -26.00035914 16.95545847 -21.3203125 14.33740234 C-17.95325033 12.39666512 -14.76923952 10.2085118 -11.55615234 8.02514648 C-8.56820836 5.99707726 -5.54967922 4.01758298 -2.52783203 2.04052734 C-1.02303487 1.08517096 -1.02303487 1.08517096 0 0 Z " fill="#F3F6F7" transform="translate(190,80)"/>
<path d="M0 0 C0.9075 0.00257813 1.815 0.00515625 2.75 0.0078125 C4.11125 0.00394531 4.11125 0.00394531 5.5 0 C7.75 0.1328125 7.75 0.1328125 8.75 1.1328125 C8.82244053 3.15245449 8.83377188 5.17448374 8.8125 7.1953125 C8.80347656 8.30003906 8.79445313 9.40476562 8.78515625 10.54296875 C8.77355469 11.39761719 8.76195312 12.25226563 8.75 13.1328125 C12.23465162 9.86419591 12.23465162 9.86419591 15.03125 6.01953125 C16.46144224 3.67883872 17.65302522 1.91350802 19.75 0.1328125 C23.50774572 -0.5471111 26.97560785 -0.35073952 30.75 0.1328125 C30.05887123 5.46986247 25.87624941 9.15609976 22.5859375 13.16015625 C20.48739645 15.89472701 20.48739645 15.89472701 20.96289062 18.53491211 C21.80362758 21.30981345 22.89477737 23.2685713 24.5078125 25.671875 C25.05050781 26.49945313 25.59320313 27.32703125 26.15234375 28.1796875 C27.30680219 29.90744843 28.46307201 31.63400032 29.62109375 33.359375 C30.16121094 34.184375 30.70132813 35.009375 31.2578125 35.859375 C31.75941895 36.60783691 32.26102539 37.35629883 32.77783203 38.12744141 C33.75 40.1328125 33.75 40.1328125 32.75 43.1328125 C28.92380732 43.74554798 25.54808693 44.00005106 21.75 43.1328125 C18.91561816 40.17085574 17.37338748 36.86603805 15.75 33.1328125 C15.08871868 31.79680006 14.42411186 30.46239718 13.75 29.1328125 C12.43 29.4628125 11.11 29.7928125 9.75 30.1328125 C9.70101563 30.90367187 9.65203125 31.67453125 9.6015625 32.46875 C9.52679688 33.47164063 9.45203125 34.47453125 9.375 35.5078125 C9.30539062 36.50554687 9.23578125 37.50328125 9.1640625 38.53125 C8.75 41.1328125 8.75 41.1328125 6.75 43.1328125 C4.62109375 43.36328125 4.62109375 43.36328125 2.1875 43.3203125 C1.38183594 43.31386719 0.57617188 43.30742187 -0.25390625 43.30078125 C-2.25 43.1328125 -2.25 43.1328125 -3.25 42.1328125 C-3.351137 39.11473187 -3.38968909 36.12000737 -3.3828125 33.1015625 C-3.38376923 32.19531128 -3.38472595 31.28906006 -3.38571167 30.35534668 C-3.38639353 28.43530203 -3.38453882 26.51525509 -3.38037109 24.59521484 C-3.37502292 21.64545546 -3.38031588 18.69584836 -3.38671875 15.74609375 C-3.38605797 13.88541633 -3.38477681 12.024739 -3.3828125 10.1640625 C-3.38483673 9.27553589 -3.38686096 8.38700928 -3.38894653 7.47155762 C-3.36090388 0.19838669 -3.36090388 0.19838669 0 0 Z " fill="#FCFCFD" transform="translate(255.25,278.8671875)"/>
<path d="M0 0 C0.52980469 0.32226562 1.05960938 0.64453125 1.60546875 0.9765625 C1.73046875 3.3515625 1.73046875 3.3515625 1.60546875 5.9765625 C-0.39453125 7.9765625 -0.39453125 7.9765625 -2.99609375 8.171875 C-3.99382812 8.14867187 -4.9915625 8.12546875 -6.01953125 8.1015625 C-7.52386719 8.07449219 -7.52386719 8.07449219 -9.05859375 8.046875 C-9.82945313 8.02367187 -10.6003125 8.00046875 -11.39453125 7.9765625 C-11.72453125 9.6265625 -12.05453125 11.2765625 -12.39453125 12.9765625 C-11.58628906 13.42386719 -10.77804688 13.87117188 -9.9453125 14.33203125 C1.80938327 20.98215467 1.80938327 20.98215467 4.60546875 24.9765625 C5.36110784 30.17158121 4.43206854 33.59045938 1.60546875 37.9765625 C-3.47442866 43.05645991 -9.04413842 44.07342536 -16.01953125 44.2890625 C-20.26561697 44.22481636 -23.02013659 43.76916498 -26.39453125 40.9765625 C-26.14453125 38.6015625 -26.14453125 38.6015625 -25.39453125 35.9765625 C-22.32994232 33.91732514 -19.89869609 33.7786459 -16.26953125 33.9140625 C-12.69106319 34.11573045 -12.69106319 34.11573045 -9.39453125 32.9765625 C-9.52489806 30.54789094 -9.52489806 30.54789094 -10.39453125 27.9765625 C-12.50990001 26.46776312 -12.50990001 26.46776312 -15.14453125 25.4765625 C-19.42324803 23.49329464 -22.60972442 21.92919155 -25.39453125 17.9765625 C-26.83642461 13.35048797 -26.90391054 10.10144178 -24.89453125 5.6640625 C-18.43364153 -1.28139395 -9.12061877 -3.898209 0 0 Z " fill="#F9FAFB" transform="translate(124.39453125,279.0234375)"/>
<path d="M0 0 C1.1240625 -0.00515625 2.248125 -0.0103125 3.40625 -0.015625 C6.35041743 0.23715705 8.01695505 0.71635459 10.5 2.25 C10.17 4.56 9.84 6.87 9.5 9.25 C5.74197749 10.37141446 2.49483142 10.17542622 -1.37890625 9.89453125 C-3.61608004 10.07668287 -3.61608004 10.07668287 -5.25 11.80078125 C-6.96754087 15.1660879 -6.93374217 17.85965645 -6.9375 21.625 C-6.95683594 22.91148437 -6.97617188 24.19796875 -6.99609375 25.5234375 C-6.41681717 29.8748537 -5.48674983 32.03540524 -2.5 35.25 C0.47528593 35.86178628 0.47528593 35.86178628 3.625 35.4375 C6.8203125 35.16796875 6.8203125 35.16796875 9.5 35.25 C11.5 38.25 11.5 38.25 11.125 40.9375 C10.815625 42.0821875 10.815625 42.0821875 10.5 43.25 C4.47741554 45.78582503 -1.78570349 46.6001265 -8.00390625 44.33984375 C-14.20451916 41.16292346 -17.23254816 37.5453748 -19.75 31 C-21.47465363 22.37673186 -20.9807613 14.98824727 -16.5 7.25 C-11.81375565 1.8996622 -6.97572007 -0.03199872 0 0 Z " fill="#F8F9FA" transform="translate(233.5,277.75)"/>
<path d="M0 0 C3.82964257 1.53185703 6.24378211 2.6951152 9.4765625 5.01171875 C10.31316406 5.60533203 11.14976562 6.19894531 12.01171875 6.81054688 C13.30529297 7.73963867 13.30529297 7.73963867 14.625 8.6875 C16.32376054 9.90220512 18.02429207 11.11443724 19.7265625 12.32421875 C21.00067993 13.25391479 21.00067993 13.25391479 22.30053711 14.20239258 C24.98591878 16.0814471 24.98591878 16.0814471 28.07641602 17.4753418 C31.26009452 19.06961878 33.55664493 20.39973992 36 23 C37.34255205 28.20427905 37.04780227 33.14173648 36.6875 38.4375 C36.6322543 39.85072075 36.58207594 41.26414922 36.53710938 42.67773438 C36.41654286 46.12284202 36.22720896 49.56008807 36 53 C34.02 53 32.04 53 30 53 C30.14308594 51.89881836 30.14308594 51.89881836 30.2890625 50.77539062 C31.18393161 42.46663502 31.88858728 33.97131301 29 26 C22.55376067 18.35647094 13.75387773 14.62901388 5 10 C5 22.21 5 34.42 5 47 C10.61 47 16.22 47 22 47 C22 48.98 22 50.96 22 53 C14.74 53 7.48 53 0 53 C0 35.51 0 18.02 0 0 Z " fill="#F5F7F9" transform="translate(195,93)"/>
<path d="M0 0 C3.63 0 7.26 0 11 0 C11.33 10.89 11.66 21.78 12 33 C16.62 33 21.24 33 26 33 C26.66 33.33 27.32 33.66 28 34 C28.09765625 40.15234375 28.09765625 40.15234375 28 42 C25.35459403 44.64540597 17.62595815 43.18562153 14.0625 43.1875 C12.84369141 43.19974609 11.62488281 43.21199219 10.36914062 43.22460938 C8.62600586 43.22750977 8.62600586 43.22750977 6.84765625 43.23046875 C5.2390271 43.23663208 5.2390271 43.23663208 3.59790039 43.24291992 C1 43 1 43 -1 41 C-1.18776167 37.99864387 -1.25550182 35.09112854 -1.23046875 32.08984375 C-1.23001053 31.20720352 -1.22955231 30.32456329 -1.2290802 29.41517639 C-1.22605687 27.54817359 -1.21816817 25.68117333 -1.20581055 23.81420898 C-1.18755226 20.94571061 -1.18530084 18.07753479 -1.18554688 15.20898438 C-1.18063188 13.39843469 -1.17480364 11.58788721 -1.16796875 9.77734375 C-1.16685593 8.91382797 -1.1657431 8.05031219 -1.16459656 7.16062927 C-1.11604615 1.11604615 -1.11604615 1.11604615 0 0 Z " fill="#F9FAFB" transform="translate(136,279)"/>
<path d="M0 0 C2 3 2 3 1.77734375 6.1640625 C0.93329566 10.32916412 -0.17781969 14.32051876 -1.4375 18.375 C-4.41735106 28.03077851 -6.33102502 37.28204232 -7.125 47.375 C-7.2084668 48.42719727 -7.29193359 49.47939453 -7.37792969 50.56347656 C-10.13045989 87.67207756 -4.36299412 124.23668891 14 157 C14.35175293 157.63341309 14.70350586 158.26682617 15.06591797 158.91943359 C23.65908643 174.2326529 34.41414351 187.73685778 47 200 C47.48855469 200.53367187 47.97710937 201.06734375 48.48046875 201.6171875 C77.01149414 231.97470237 117.91449346 245.91916468 158 252 C158 252.33 158 252.66 158 253 C126.52454648 255.59889066 91.704754 237.93887916 67 220 C66.20078125 219.41992188 65.4015625 218.83984375 64.578125 218.2421875 C62.33574819 216.54812911 60.16489783 214.79213397 58 213 C57.23719727 212.37834961 57.23719727 212.37834961 56.45898438 211.74414062 C19.08169934 181.17840234 -5.38602541 136.18664619 -10.79696655 88.11663818 C-11.42266951 81.59364021 -11.48365363 75.0482709 -11.5 68.5 C-11.50400818 67.70939178 -11.50801636 66.91878357 -11.512146 66.10421753 C-11.53476444 47.6773399 -8.91865572 29.50776052 -3 12 C-2.61454279 10.25662489 -2.2580814 8.50646281 -1.9375 6.75 C-1.10526316 2.21052632 -1.10526316 2.21052632 0 0 Z " fill="#E0E6EB" transform="translate(23,131)"/>
<path d="M0 0 C21.29594478 18.96907196 31.29793571 54.97692389 36 82 C36.33837891 83.8253125 36.33837891 83.8253125 36.68359375 85.6875 C41.88409216 118.97068982 37.18304507 154.08400934 24 185 C22.57347393 180.72042178 24.28773318 177.63509437 25.75 173.5625 C26.31661039 171.91241999 26.88042015 170.2613756 27.44140625 168.609375 C27.71355957 167.80951172 27.98571289 167.00964844 28.26611328 166.18554688 C42.97245196 122.38942449 36.00040264 71.18156057 15.76953125 30.46484375 C11.85219219 22.77615865 7.57137679 15.49718413 2.62890625 8.41796875 C1.20793054 6.30865468 -0.06182828 4.36337247 -1 2 C-0.67 1.34 -0.34 0.68 0 0 Z " fill="#E0E6EB" transform="translate(348,85)"/>
<path d="M0 0 C11.7606838 11.7606838 12.34974268 45.61723909 12.375 61.375 C12.13013337 78.60555195 9.68317124 95.19329628 6 112 C5.01 111.34 4.02 110.68 3 110 C3.268125 108.72125 3.53625 107.4425 3.8125 106.125 C4.21196522 104.08404083 4.60722369 102.04225698 5 100 C5.25048096 98.73961914 5.50096191 97.47923828 5.7590332 96.18066406 C7.78168092 85.47890477 8.47091396 75.10517093 8.39111328 64.22363281 C8.37504914 61.63292485 8.39106408 59.04378597 8.41015625 56.453125 C8.43039328 41.07924181 6.95047314 25.66411561 2.3125 10.9375 C0 3.2976361 0 3.2976361 0 0 Z " fill="#D4DCE3" transform="translate(366,142)"/>
<path d="M0 0 C3.90969354 0.4230623 6.17966585 1.57359125 9.21484375 4.01953125 C9.98376953 4.62990234 10.75269531 5.24027344 11.54492188 5.86914062 C12.33447266 6.51044922 13.12402344 7.15175781 13.9375 7.8125 C23.82704844 16.35822729 23.82704844 16.35822729 36 20 C36 21.32 36 22.64 36 24 C28.20913417 24.91646354 23.65093911 23.91655029 17.42578125 19.12109375 C16.62527344 18.46238281 15.82476562 17.80367187 15 17.125 C14.16855469 16.47402344 13.33710938 15.82304687 12.48046875 15.15234375 C10.94740278 13.95115313 9.42280782 12.73900588 7.91015625 11.51220703 C4.57185751 8.8693872 3.40811682 8 -1 8 C-1.04241723 5.66705225 -1.04092937 3.33297433 -1 1 C-0.67 0.67 -0.34 0.34 0 0 Z " fill="#F2F4F6" transform="translate(234,122)"/>
<path d="M0 0 C7.40415246 4.61242284 14.67749747 9.41497646 21.9375 14.25 C23.32328247 15.17159912 23.32328247 15.17159912 24.73706055 16.11181641 C25.616604 16.69882324 26.49614746 17.28583008 27.40234375 17.890625 C28.19116943 18.41688477 28.97999512 18.94314453 29.79272461 19.48535156 C30.52112549 19.98518555 31.24952637 20.48501953 32 21 C33.12450562 21.74008301 33.12450562 21.74008301 34.27172852 22.49511719 C36 24 36 24 36.25 27.1875 C36.1675 28.115625 36.085 29.04375 36 30 C32.15590945 28.61985961 29.09002851 26.83838701 25.76171875 24.48046875 C24.77623047 23.78759766 23.79074219 23.09472656 22.77539062 22.38085938 C21.24688477 21.29514648 21.24688477 21.29514648 19.6875 20.1875 C17.67186246 18.76249713 15.65495889 17.33928314 13.63671875 15.91796875 C12.67878418 15.24064697 11.72084961 14.5633252 10.73388672 13.86547852 C8.3040897 12.20749682 5.84229924 10.70399934 3.30078125 9.2265625 C2.21152344 8.49179688 1.12226563 7.75703125 0 7 C-0.5 3.1875 -0.5 3.1875 0 0 Z " fill="#F6F7F9" transform="translate(195,80)"/>
<path d="M0 0 C0.33 0 0.66 0 1 0 C7.15799954 34.41881886 2.68592257 70.90469486 -11 103 C-12.42652607 98.72042178 -10.71226682 95.63509437 -9.25 91.5625 C-8.68338961 89.91241999 -8.11957985 88.2613756 -7.55859375 86.609375 C-7.28644043 85.80951172 -7.01428711 85.00964844 -6.73388672 84.18554688 C1.4464526 59.82413718 1.8862956 31.84801243 -0.88769531 6.49487305 C-0.99658138 4.0759453 -0.72468373 2.29539203 0 0 Z " fill="#C7D2DB" transform="translate(383,167)"/>
<path d="M0 0 C2 3 2 3 1.77734375 6.1640625 C0.93329566 10.32916412 -0.17781969 14.32051876 -1.4375 18.375 C-4.20911631 27.35602376 -6.20752714 35.9719794 -6.78125 45.375 C-6.90222303 47.11849796 -7.02332022 48.86198732 -7.14453125 50.60546875 C-7.32512178 53.32224293 -7.5025201 56.03918999 -7.67724609 58.75634766 C-7.8497537 61.40067662 -8.03366641 64.04402619 -8.21875 66.6875 C-8.26777466 67.50718262 -8.31679932 68.32686523 -8.36730957 69.17138672 C-8.50593775 71.12074758 -8.74318048 73.06266438 -9 75 C-9.99 75.495 -9.99 75.495 -11 76 C-11.7200094 60.97765004 -11.10911731 46.89387035 -8.125 32.1875 C-7.99003113 31.51951385 -7.85506226 30.85152771 -7.71600342 30.16329956 C-6.4471601 23.97465984 -5.03827878 17.9818707 -3 12 C-2.61454279 10.25662489 -2.2580814 8.50646281 -1.9375 6.75 C-1.10526316 2.21052632 -1.10526316 2.21052632 0 0 Z " fill="#F6F7F9" transform="translate(23,131)"/>
<path d="M0 0 C1.19480347 4.02590947 0.53494097 6.33049269 -0.6875 10.375 C-4.63601877 24.16610236 -7.39445739 38.64864015 -8 53 C-9.485 53.495 -9.485 53.495 -11 54 C-11.1192567 48.40748838 -10.76271112 43.19513648 -9.8125 37.6875 C-9.61720703 36.53713257 -9.61720703 36.53713257 -9.41796875 35.36352539 C-7.27157174 23.3229699 -3.97040684 11.55818177 0 0 Z " fill="#618099" transform="translate(20,139)"/>
<path d="M0 0 C0 0.33 0 0.66 0 1 C6.27 1.33 12.54 1.66 19 2 C19 2.33 19 2.66 19 3 C4.93595766 3.9534944 -8.94953903 4.60576697 -23 3 C-23 2.67 -23 2.34 -23 2 C-15.2441657 0.29005228 -7.93396732 -0.24923458 0 0 Z " fill="#94A8BA" transform="translate(193,383)"/>
<path d="M0 0 C0.99 0 1.98 0 3 0 C4.75747614 4.50353262 5.19294408 8.17639811 5 13 C2.69 13 0.38 13 -2 13 C-2.19294408 8.17639811 -1.75747614 4.50353262 0 0 Z " fill="#587993" transform="translate(187,293)"/>
<path d="M0 0 C3.8919675 -0.05029881 7.78380325 -0.08613311 11.67602539 -0.10986328 C13.63369418 -0.1245951 15.59127318 -0.15003698 17.54882812 -0.17578125 C25.89354848 -0.21824802 33.79760593 0.45906523 42 2 C41.67 2.99 41.34 3.98 41 5 C39.93640259 4.87153687 39.93640259 4.87153687 38.85131836 4.74047852 C19.4673404 2.40521675 19.4673404 2.40521675 0 1 C0 0.67 0 0.34 0 0 Z " fill="#7F97AC" transform="translate(186,14)"/>
<path d="M0 0 C12.05141285 3.22805701 23.36837328 10.17430329 33 18 C28.88814802 18 26.24647805 15.98042175 22.8125 13.9375 C14.80176677 9.28464234 6.55220432 5.53688237 -2 2 C-1.34 1.34 -0.68 0.68 0 0 Z " fill="#DEE5EA" transform="translate(263,31)"/>
<path d="M0 0 C1.24136719 0.19851563 2.48273438 0.39703125 3.76171875 0.6015625 C8.3374803 1.40876379 12.89627931 2.26641764 17.4375 3.25 C17.4375 3.58 17.4375 3.91 17.4375 4.25 C7.90001851 4.6777608 -0.33088596 3.57520414 -9.5625 1.25 C-5.74908341 -1.29227773 -4.44258723 -0.72173755 0 0 Z " fill="#5F7E98" transform="translate(157.5625,380.75)"/>
<path d="M0 0 C0.99 0.66 1.98 1.32 3 2 C1.92598892 4.91517292 1.22189824 6.77810176 -1 9 C-1.99 10.485 -1.99 10.485 -3 12 C-3.99 13.485 -3.99 13.485 -5 15 C-5.66 15 -6.32 15 -7 15 C-5.63408831 11.45756548 -4.09068516 8.07372071 -2.375 4.6875 C-1.70597656 3.36298828 -1.70597656 3.36298828 -1.0234375 2.01171875 C-0.68570312 1.34785156 -0.34796875 0.68398438 0 0 Z " fill="#708BA3" transform="translate(357,290)"/>
<path d="M0 0 C3.51590594 1.30218739 5.21467435 3.37305835 7.49609375 6.26953125 C10.32853943 9.52868303 13.69809364 12.23065918 17 15 C16.01 15.495 16.01 15.495 15 16 C9.49835418 11.42720347 4.41303277 6.65419824 0 1 C0 0.67 0 0.34 0 0 Z " fill="#D3DBE3" transform="translate(58,321)"/>
<path d="M0 0 C1.98 0 3.96 0 6 0 C6 1.98 6 3.96 6 6 C4.02 6 2.04 6 0 6 C0 4.02 0 2.04 0 0 Z " fill="#CBD5DE" transform="translate(233,134)"/>
<path d="M0 0 C0.66 0.33 1.32 0.66 2 1 C1.67 6.61 1.34 12.22 1 18 C-2 15 -2 15 -2.3125 11.25 C-2.17140257 7.23986259 -1.26520909 3.79562726 0 0 Z " fill="#C5D0DA" transform="translate(14,173)"/>
<path d="M0 0 C0.33 0 0.66 0 1 0 C0.67 5.28 0.34 10.56 0 16 C-0.99 15.67 -1.98 15.34 -3 15 C-2.44854729 9.76119922 -1.57077907 5.02649303 0 0 Z " fill="#63819A" transform="translate(14,160)"/>
<path d="M0 0 C1.65 0 3.3 0 5 0 C5 1.65 5 3.3 5 5 C3.35 5 1.7 5 0 5 C0 3.35 0 1.7 0 0 Z " fill="#D9E0E6" transform="translate(152,141)"/>
<path d="M0 0 C2.56687367 3.8503105 1.83288724 5.58569763 1 10 C0.01 10 -0.98 10 -2 10 C-1.125 2.25 -1.125 2.25 0 0 Z " fill="#D5DDE4" transform="translate(23,131)"/>
<path d="M0 0 C2.8203125 0.2421875 2.8203125 0.2421875 6.125 0.875 C7.22070312 1.07867187 8.31640625 1.28234375 9.4453125 1.4921875 C10.28835937 1.65976562 11.13140625 1.82734375 12 2 C9.56661348 3.53508028 8.32875493 4.03088304 5.421875 3.7578125 C4.09929687 3.44457031 4.09929687 3.44457031 2.75 3.125 C1.85796875 2.92132813 0.9659375 2.71765625 0.046875 2.5078125 C-0.62859375 2.34023438 -1.3040625 2.17265625 -2 2 C-1.34 1.34 -0.68 0.68 0 0 Z " fill="#CBD5DD" transform="translate(152,378)"/>
<path d="M0 0 C1.32 0 2.64 0 4 0 C4 1.65 4 3.3 4 5 C2.68 5 1.36 5 0 5 C0 3.35 0 1.7 0 0 Z " fill="#EAEEF1" transform="translate(146,141)"/>
<path d="M0 0 C0.99 0.66 1.98 1.32 3 2 C2.34 3.65 1.68 5.3 1 7 C0.01 6.67 -0.98 6.34 -2 6 C-1.34 4.02 -0.68 2.04 0 0 Z " fill="#7993A8" transform="translate(357,290)"/>
<path d="" fill="#8BA1B5" transform="translate(0,0)"/>
<path d="" fill="#859CB1" transform="translate(0,0)"/>
<path d="" fill="#7D96AB" transform="translate(0,0)"/>
<path d="" fill="#879EB1" transform="translate(0,0)"/>
<path d="" fill="#95AABB" transform="translate(0,0)"/>
<path d="" fill="#9AAEBE" transform="translate(0,0)"/>
<path d="" fill="#8AA0B3" transform="translate(0,0)"/>
<path d="" fill="#829AAE" transform="translate(0,0)"/>
<path d="" fill="#9EB0C0" transform="translate(0,0)"/>
<path d="" fill="#A0B3C2" transform="translate(0,0)"/>
<path d="" fill="#A7B8C6" transform="translate(0,0)"/>
<path d="" fill="#A7B8C6" transform="translate(0,0)"/>
<path d="" fill="#B7C5D1" transform="translate(0,0)"/>
<path d="" fill="#BBC8D4" transform="translate(0,0)"/>
<path d="" fill="#BFCBD6" transform="translate(0,0)"/>
</svg>
